<?xml version="1.0" encoding="UTF-8"?>
<svg width="170.97mm" height="23.669mm" version="1.1" viewBox="0 0 170.97 23.669" xmlns="http://www.w3.org/2000/svg" xmlns:cc="http://creativecommons.org/ns#" xmlns:dc="http://purl.org/dc/elements/1.1/" xmlns:rdf="http://www.w3.org/1999/02/22-rdf-syntax-ns#">
    <defs>
        <style>.c{fill:#0f172a;}.d{fill:url(#a);}</style>
        <linearGradient id="a" x1="369.9" x2="443.79" y1="-42.57" y2="233.2" gradientTransform="matrix(.23507 0 0 .23507 7.2704 107.21)" gradientUnits="userSpaceOnUse">
            <stop stop-color="#34d399" offset="0" />
            <stop stop-color="#3b82f6" offset="1" />
        </linearGradient>
        <clipPath id="b">
            <path class="c" d="m198.19 106.35h-191.6v43.634h191.6zm-26.389 11.427h13.691c0.62528 0 1.0555 0.29383 1.2952 0.88151 0.0729 0.18336 0.11048 0.36671 0.11048 0.55007v3.3874h-15.096v-4.8213zm-89.061 0h13.691c0.62529 0 1.0555 0.29383 1.2952 0.88151 0.0729 0.18336 0.11048 0.36671 0.11048 0.55007v3.3874h-15.096v-4.8213zm-54.019 21.902h-4.243c-0.62529 0-1.0555-0.27504-1.2952-0.82745-0.07287-0.20216-0.11048-0.39492-0.11048-0.57828v-9.6191c0-2.661 2.1815-4.5792 5.6464-4.5792v15.602zm5.6205-17.08h-15.482c-0.6441 0-1.0837-0.28443-1.3211-0.8533-0.07287-0.18336-0.11048-0.36672-0.11048-0.55007v-3.4156h15.508c0.62529 0 1.0555 0.29383 1.2952 0.88151 0.07287 0.18336 0.11048 0.36671 0.11048 0.55007zm7.7691 17.08h-4.2148c-0.6441 0-1.0837-0.28444-1.3211-0.85331-0.07287-0.18336-0.11048-0.36671-0.11048-0.55007v-14.198c3.4673 0 5.6464 1.9182 5.6464 4.5792v11.025zm0-17.08h-5.6464v-4.8213h4.243c0.62529 0 1.0555 0.29383 1.2952 0.88151 0.07287 0.18336 0.11048 0.36671 0.11048 0.55007v3.3874zm18.651 17.08h-6.7489c-2.4988 0-4.638-0.85331-6.4174-2.5623-1.7818-1.8171-2.6986-3.9304-2.755-6.3352v-4.8213c0-2.2214 0.87211-4.1326 2.6163-5.731 1.8171-1.6338 4.0033-2.4518 6.5561-2.4518h5.2068c0.62529 0 1.0555 0.29383 1.2952 0.88151 0.07287 0.18336 0.11048 0.36671 0.11048 0.55007v3.3874h-6.6102c-1.1213 0-2.0028 0.4772-2.6446 1.4316-0.38552 0.58767-0.57828 1.2294-0.57828 1.9276v4.8213c0 1.4316 0.46779 2.5529 1.4057 3.3615 0.55007 0.4772 1.1565 0.71697 1.8171 0.71697h5.3432c0.62529 0 1.0555 0.27503 1.2952 0.82745 0.07287 0.20216 0.11048 0.39492 0.11048 0.57827v3.4156zm14.793 0.0541c-0.88152-0.0188-1.5703-0.39492-2.0663-1.1283l-4.7931-6.9134v7.9877h-4.2148c-0.64409 0-1.0837-0.28444-1.3211-0.85331-0.07287-0.18336-0.11048-0.36671-0.11048-0.55007v-20.498h4.243c0.62529 0 1.0555 0.29383 1.2952 0.88151 0.07287 0.18336 0.11048 0.36671 0.11048 0.55007v6.5021l5.8674-7.9336h4.9318c0.496 0.0376 0.77103 0.23036 0.82745 0.57827-0.01881 0.16455-0.09168 0.34085-0.22097 0.52421l-6.9134 9.3394 8.0159 11.514h-5.6464zm22.423-0.0541h-13.801c-0.6441 0-1.0837-0.28444-1.3211-0.85331-0.07287-0.18336-0.11048-0.36671-0.11048-0.55007v-9.6191c0-2.661 2.1815-4.5792 5.6464-4.5792v2.2966h7.1908c0.64174 0 1.0837 0.28444 1.3211 0.85331 0.07287 0.18336 0.11048 0.36671 0.11048 0.55007v3.1406h-8.6224v3.9398h8.1805c0.62529 0 1.0555 0.27503 1.2952 0.82745 0.0729 0.20216 0.11048 0.39492 0.11048 0.57827zm12.976 0h-4.243c-0.62529 0-1.0555-0.27504-1.2952-0.82745-0.0729-0.20216-0.11048-0.39492-0.11048-0.57828v-14.198c3.4579 0 5.6346 1.9064 5.6464 4.5557v11.046zm5.6206-17.08h-15.482c-0.64409 0-1.0837-0.28443-1.3211-0.8533-0.0729-0.18336-0.11048-0.36672-0.11048-0.55007v-3.4156h15.51c0.62529 0 1.0555 0.29383 1.2952 0.88151 0.0729 0.18336 0.11049 0.36671 0.11049 0.55007v3.3874zm23.387 17.08h-12.976c-0.64409 0-1.0837-0.28444-1.3211-0.85331-0.0729-0.18336-0.11048-0.36671-0.11048-0.55007v-20.498h4.243c0.62529 0 1.0555 0.29383 1.2952 0.88151 0.0729 0.18336 0.11048 0.36671 0.11048 0.55007v15.649h7.3272c0.64175 0 1.0837 0.28444 1.3211 0.85331 0.0729 0.18335 0.11049 0.36671 0.11049 0.55006v3.4156zm7.9054 0h-4.2148c-0.64409 0-1.0837-0.28444-1.3211-0.85331-0.0729-0.18336-0.11048-0.36671-0.11048-0.55007v-14.198c3.4673 0 5.6464 1.9182 5.6464 4.5792v11.025zm0-17.08h-5.6464v-4.8213h4.243c0.62529 0 1.0555 0.29383 1.2952 0.88151 0.0729 0.18336 0.11048 0.36671 0.11048 0.55007v3.3874zm20.578 17.08h-4.243c-0.91913 0-1.5985-0.40432-2.0381-1.213-0.0188-0.0188-0.0282-0.0376-0.0282-0.0541l-5.2609-9.9435v11.213h-4.2148c-0.6441 0-1.0837-0.28444-1.3211-0.85331-0.0729-0.18336-0.11049-0.36671-0.11049-0.55007v-20.501h4.243c0.91913 0 1.5985 0.38551 2.0381 1.1565 0.0188 0.0376 0.0376 0.0729 0.0541 0.11049l5.235 9.9435v-11.211h4.243c0.62529 0 1.0555 0.29383 1.2952 0.88151 0.0729 0.18336 0.11048 0.36671 0.11048 0.55007v20.468zm4.7931 0c-0.6441 0-1.0837-0.28444-1.3211-0.85331-0.0729-0.18336-0.11048-0.36671-0.11048-0.55007v-9.6191c0-2.661 2.1815-4.5792 5.6464-4.5792v2.2966h7.1908c0.64174 0 1.0837 0.28444 1.3211 0.85331 0.0729 0.18336 0.11048 0.36671 0.11048 0.55007v3.1406h-8.6224v3.9398h8.1805c0.62529 0 1.0555 0.27503 1.2952 0.82745 0.0729 0.20216 0.11048 0.39492 0.11048 0.57827v3.4156z" display="none" stroke-width=".23507" />
            <path class="powerclip" d="m12.423 112.78h180.97v33.669h-180.97zm185.76-6.4292h-191.6v43.634h191.6zm-26.389 11.427v-2e-3 4.8213h15.096v-3.3874c0-0.18336-0.0376-0.36671-0.11048-0.55007-0.23978-0.58768-0.66996-0.88151-1.2952-0.88151zm-89.061 0v-2e-3 4.8213h15.096v-3.3874c0-0.18336-0.03758-0.36671-0.11048-0.55007-0.23978-0.58768-0.66996-0.88151-1.2952-0.88151zm-54.019 21.902-0.0024-2e-3v-15.602c-3.4649 0-5.6464 1.9182-5.6464 4.5792v9.6191c0 0.18336 0.03761 0.37612 0.11048 0.57828 0.23977 0.55241 0.66995 0.82745 1.2952 0.82745zm5.6205-17.08v-3.3874c0-0.18336-0.03761-0.36671-0.11048-0.55007-0.23977-0.58768-0.66995-0.88151-1.2952-0.88151h-15.508v3.4156c0 0.18335 0.03761 0.36671 0.11048 0.55007 0.23742 0.56887 0.677 0.8533 1.3211 0.8533zm7.7691 17.08v2e-3 -11.025c0-2.661-2.1791-4.5792-5.6464-4.5792v14.198c0 0.18336 0.03761 0.36671 0.11048 0.55007 0.23742 0.56887 0.677 0.85331 1.3211 0.85331zm0-17.08 0.0023-2e-3v-3.3874c0-0.18336-0.03761-0.36671-0.11048-0.55007-0.23977-0.58768-0.66995-0.88151-1.2952-0.88151h-4.243v4.8213zm18.651 17.08 0.0023-2e-3v-3.4156c0-0.18335-0.03761-0.37611-0.11048-0.57827-0.23977-0.55242-0.66995-0.82745-1.2952-0.82745h-5.3432c-0.66055 0-1.267-0.23977-1.8171-0.71697-0.93794-0.80864-1.4057-1.9299-1.4057-3.3615v-4.8213c0-0.69816 0.19276-1.3399 0.57828-1.9276 0.64174-0.95439 1.5233-1.4316 2.6446-1.4316h6.6102v-3.3874c0-0.18336-0.03761-0.36671-0.11048-0.55007-0.23977-0.58768-0.66995-0.88151-1.2952-0.88151h-5.2068c-2.5529 0-4.739 0.81804-6.5561 2.4518-1.7442 1.5985-2.6163 3.5096-2.6163 5.731v4.8213c0.05642 2.4048 0.97319 4.5181 2.755 6.3352 1.7795 1.709 3.9186 2.5623 6.4174 2.5623zm14.793 0.0541h5.6511l-8.0159-11.514 6.9134-9.3394c0.12929-0.18336 0.20216-0.35966 0.22097-0.52421-0.05642-0.34791-0.33145-0.54067-0.82745-0.57827h-4.9318l-5.8674 7.9336v-6.5021c0-0.18336-0.03761-0.36671-0.11048-0.55007-0.23977-0.58768-0.66995-0.88151-1.2952-0.88151h-4.243v20.498c0 0.18336 0.03762 0.36671 0.11048 0.55007 0.23742 0.56887 0.677 0.85331 1.3211 0.85331h4.2148v-7.9877l4.7931 6.9134c0.496 0.73342 1.1848 1.1095 2.0663 1.1283zm22.423-0.0541v-3.4156c0-0.18335-0.03758-0.37611-0.11048-0.57827-0.23977-0.55242-0.66996-0.82745-1.2952-0.82745h-8.1805v-3.9398h8.6224v-3.1406c0-0.18336-0.03761-0.36671-0.11048-0.55007-0.23742-0.56887-0.67936-0.85331-1.3211-0.85331h-7.1908v-2.2966c-3.4649 0-5.6464 1.9182-5.6464 4.5792v9.6191c0 0.18336 0.03761 0.36671 0.11048 0.55007 0.23742 0.56887 0.67701 0.85331 1.3211 0.85331zm12.976 0-2e-3 -2e-3v-11.046c-0.0118-2.6492-2.1885-4.5557-5.6464-4.5557v14.198c0 0.18336 0.0376 0.37612 0.11048 0.57828 0.23977 0.55241 0.66995 0.82745 1.2952 0.82745zm5.6206-17.08h2e-3v-3.3874c0-0.18336-0.0376-0.36671-0.11049-0.55007-0.23977-0.58768-0.66995-0.88151-1.2952-0.88151h-15.51v3.4156c0 0.18335 0.03758 0.36671 0.11048 0.55007 0.23743 0.56887 0.67701 0.8533 1.3211 0.8533zm23.387 17.08v-3.4176c0-0.18335-0.0376-0.36671-0.11049-0.55006-0.23742-0.56887-0.67935-0.85331-1.3211-0.85331h-7.3272v-15.649c0-0.18336-0.0376-0.36671-0.11048-0.55007-0.23978-0.58768-0.66996-0.88151-1.2952-0.88151h-4.243v20.498c0 0.18336 0.0376 0.36671 0.11048 0.55007 0.23743 0.56887 0.67701 0.85331 1.3211 0.85331zm7.9054 0v2e-3 -11.025c0-2.661-2.1791-4.5792-5.6464-4.5792v14.198c0 0.18336 0.0376 0.36671 0.11048 0.55007 0.23743 0.56887 0.67701 0.85331 1.3211 0.85331zm0-17.08 2e-3 -2e-3v-3.3874c0-0.18336-0.0376-0.36671-0.11048-0.55007-0.23978-0.58768-0.66996-0.88151-1.2952-0.88151h-4.243v4.8213zm20.578 17.08 2e-3 -2e-3v-20.468c0-0.18336-0.0376-0.36671-0.11048-0.55007-0.23977-0.58768-0.66995-0.88151-1.2952-0.88151h-4.243v11.211l-5.235-9.9435c-0.0165-0.0376-0.0353-0.0729-0.0541-0.11049-0.43958-0.77103-1.1189-1.1565-2.0381-1.1565h-4.243v20.501c0 0.18336 0.0376 0.36671 0.11049 0.55007 0.23742 0.56887 0.677 0.85331 1.3211 0.85331h4.2148v-11.213l5.2609 9.9435c0 0.0165 9e-3 0.0353 0.0282 0.0541 0.43958 0.80865 1.1189 1.213 2.0381 1.213zm4.7931 0h13.801v-3.4156c0-0.18335-0.0376-0.37611-0.11048-0.57827-0.23977-0.55242-0.66995-0.82745-1.2952-0.82745h-8.1805v-3.9398h8.6224v-3.1406c0-0.18336-0.0376-0.36671-0.11048-0.55007-0.23742-0.56887-0.67936-0.85331-1.3211-0.85331h-7.1908v-2.2966c-3.4649 0-5.6464 1.9182-5.6464 4.5792v9.6191c0 0.18336 0.0376 0.36671 0.11048 0.55007 0.23742 0.56887 0.677 0.85331 1.3211 0.85331z" stroke-width=".23507" />
        </clipPath>
    </defs>
    <metadata>
        <rdf:RDF>
            <cc:Work rdf:about="">
                <dc:format>image/svg+xml</dc:format>
                <dc:type rdf:resource="http://purl.org/dc/dcmitype/StillImage" />
                <dc:title />
            </cc:Work>
        </rdf:RDF>
    </metadata>
    <g transform="translate(-17.423 -117.78)">
        <path class="d" x="17.42313" y="117.78313" width="170.96954" height="23.669308" d="m17.423 117.78h170.97v23.669h-170.97z" clip-path="url(#b)" fill="url(#a)" stroke-width=".23507" />
    </g>
</svg>